<svg width="253" height="255" viewBox="0 0 253 255" fill="none" xmlns="http://www.w3.org/2000/svg">
<g clip-path="url(#clip0_4_2)">
<path d="M125.406 58.3702C128.213 54.7381 131.738 50.6773 134.705 47.0624C142.043 38.1218 149.437 29.2142 156.889 20.3399C159.363 17.3852 172.618 0.996345 175.221 -0.633373C177.032 -0.536653 176.747 1.25544 176.4 2.28879C175.502 4.96085 174.232 7.5567 173.238 10.1997L166.623 27.2954L159.911 44.3444C158.725 47.3576 157.344 51.2012 155.996 54.0757C155.425 56.553 151.845 64.7985 150.759 67.6242C147.919 75.1605 145.005 82.6774 142.015 90.1742C139.729 95.9207 137.042 102.289 135.005 108.056C138.279 108.274 143.463 108.045 146.874 107.996C155.241 107.905 163.607 107.759 171.973 107.558C174.46 107.495 187.853 106.751 189.27 107.736C189.931 108.99 188.738 109.959 187.86 111.023C181.74 118.46 175.509 125.832 169.333 133.237C142.966 164.367 116.826 195.628 90.9096 227.022L73.4324 248.213C70.8699 251.312 68.2436 254.464 65.6918 257.577C65.3746 257.964 64.5073 258.712 63.9615 258.851C63.2962 259.021 63.243 258.892 62.7206 258.663C61.8391 256.806 64.9139 248.434 65.6832 245.982L71.2893 228.075C77.5601 207.738 84.0167 187.439 90.6585 167.181C91.8031 163.672 93.1987 160.122 94.057 156.575C94.1687 156.114 91.1469 156.061 90.7258 156.093C86.9504 156.383 83.1812 156.718 79.4038 157.008C70.7508 157.745 62.0855 158.362 53.4114 158.862C51.3907 158.985 46.1739 159.647 44.6431 158.675C44.4004 157.136 55.0189 144.836 56.7973 142.628L83.7002 109.51C94.0766 96.5955 104.543 83.7321 115.099 70.9201C118.505 66.7808 121.925 62.4395 125.406 58.3702ZM75.65 145.331C80.0015 144.687 116.893 139.785 119.473 140.154C119.713 140.427 120.019 140.705 119.844 141.101C119.274 142.395 118.517 143.885 117.907 145.14L112.747 155.853C106.957 168.077 101.312 180.35 95.8118 192.668L91.2291 202.758C90.0277 205.392 88.6173 208.262 87.8579 210.982C88.8089 209.841 89.7267 208.741 90.6213 207.569L139.816 147.259L156.275 127.315C157.829 125.435 162.565 120.03 163.635 118.401L163.38 118.414C160.546 118.578 155.318 119.421 152.361 119.827L129.599 122.858C112.74 125.154 113.671 127.198 119.309 113.29C124.968 99.3266 130.435 85.2354 136.147 71.2788C136.54 70.3059 138.453 65.8621 138.339 65.2625C137.253 66.1342 134.324 70.1197 133.345 71.3888L123.293 84.4827L94.8577 121.119C88.9206 128.752 81.9982 138.019 75.65 145.331Z" fill="url(#paint0_linear_4_2)"/>
<path d="M125.406 58.3702C128.213 54.7381 131.738 50.6773 134.705 47.0624C142.043 38.1218 149.437 29.2142 156.889 20.3399C159.363 17.3852 172.618 0.996353 175.221 -0.633365C177.032 -0.536645 176.747 1.25545 176.4 2.2888C175.502 4.96086 174.232 7.5567 173.238 10.1997L166.623 27.2954L159.911 44.3444C158.725 47.3576 157.344 51.2012 155.996 54.0757C156.047 53.464 156.07 52.8879 156.225 52.287L156.111 52.0754L156.197 51.9887L155.6 52.2485C155.031 52.0176 154.892 51.7031 154.564 51.2433C154.975 50.1243 155.756 49.8659 156.193 48.5277C157.147 45.6119 158.774 42.8043 159.659 39.8431C159.892 39.0663 160.558 38.4961 160.676 37.712C160.847 36.5854 160.519 34.4944 159.225 33.9152L158.809 34.0191C158.365 34.8096 158.091 35.0578 157.133 35.4102C154.661 36.319 154.738 38.9967 151.649 38.5339C151.232 38.8302 151.257 38.8052 151.064 39.2352C150.658 39.0693 150.461 38.9795 150.079 38.7762C148.113 39.2685 148.96 38.1927 147.511 38.1615C146.917 38.1487 146.278 38.5815 145.489 38.4055L145.413 38.0018C144.626 37.9934 144.223 38.4122 143.62 38.887C141.153 39.0552 142.295 39.7046 140.915 41.1455C139.992 42.0491 138.594 42.4237 138.457 43.7545C138.337 44.9088 138.041 44.8493 137.495 45.4715C137.087 45.9371 135.892 46.9356 135.681 47.254C134.739 48.6837 135.046 50.8818 135.194 52.449C135.237 52.895 133.187 54.1085 133.149 54.5268C133.075 55.332 132.69 56.0613 131.98 56.6401L131.569 56.7602C130.572 55.9151 131.525 54.5572 130.007 54.5175C128.175 55.5395 126.884 58.3534 125.728 58.5045L125.406 58.3702Z" fill="#FEC817"/>
<path d="M134.97 57.1413L135.214 57.2713C135.695 57.1614 135.731 57.15 136.225 57.1308L135.778 57.4249C135.201 57.7902 135.06 57.9492 134.341 57.9614L134.293 57.719L134.97 57.1413Z" fill="#FEC817"/>
</g>
<defs>
<linearGradient id="paint0_linear_4_2" x1="203.678" y1="80.0793" x2="41.4693" y2="235.873" gradientUnits="userSpaceOnUse">
<stop stop-color="#FFDB09"/>
<stop offset="1" stop-color="#FF5E3B"/>
</linearGradient>
<clipPath id="clip0_4_2">
<rect width="253" height="255" fill="white"/>
</clipPath>
</defs>
</svg>
